# xmcd
#
# Track frame offsets:
#	150
#	19612
#	40103
#	64235
#	83505
#	99690
#	126735
#	150905
#	164380
#	195479
#
# Disc length: 3038 seconds
#
# Revision: 0
# Processed by: cddbd v1.5.2PL0 Copyright (c) Steve Scherf et al.
# Submitted via: EasyCDDAExtractor 2011.0.0.0
#
DISCID=770bdc0a
DTITLE=Zen Blues Quartet
DYEAR=2005
DGENRE=Blues
TTITLE0=Pack It Up
TTITLE1=Body and Fender Man
TTITLE2=You're Gonna Need Me
TTITLE3=Get Your Business Straight
TTITLE4=Gee Baby Ain't I Good to You
TTITLE5=A Real Mother for You
TTITLE6=Take out Some Insurance
TTITLE7=Messin' with the Kid
TTITLE8=I Love You More Than You Will Ever Know
TTITLE9=Since the World Ended
EXTD=
EXTT0=
EXTT1=
EXTT2=
EXTT3=
EXTT4=
EXTT5=
EXTT6=
EXTT7=
EXTT8=
EXTT9=
PLAYORDER=
